# xmcd
#
# Track frame offsets: 
#        150
#        15537
#        50586
#        73794
#        93046
#        95158
#        111072
#        120777
#        134473
#        161871
#        175395
#        210176
#
# Disc length: 3147 seconds
#
# Revision: 0
# Processed by: cddbd v1.4PL0 Copyright (c) Steve Scherf et al.
# Submitted via: ExactAudioCopy v0.90a11
#
DISCID=9c0c490c
DTITLE=Kilborn Alley Blues Band - Live on WEFT
DYEAR=1900
DGENRE=
TTITLE0=Hoochi Coochi Man
TTITLE1=Stormy Monday
TTITLE2=Born Under A Bad Sign
TTITLE3=Help Me Baby
TTITLE4=A Lil' Adjustment
TTITLE5=Walking Blues
TTITLE6=Interview
TTITLE7=School Girl
TTITLE8=Gambler's Blues
TTITLE9=West Side Park
TTITLE10=I Got My Mojo Workin'/West-East
TTITLE11=Goin' to Iowa City
EXTD=
EXTT0=
EXTT1=
EXTT2=
EXTT3=
EXTT4=
EXTT5=
EXTT6=
EXTT7=
EXTT8=
EXTT9=
EXTT10=
EXTT11=
PLAYORDER=
